<?xml version="1.0" encoding="utf-8"?>

<!DOCTYPE svg PUBLIC "-//W3C//DTD SVG 1.1//EN" "http://www.w3.org/Graphics/SVG/1.1/DTD/svg11.dtd">
<svg version="1.1" id="Layer_1" xmlns="http://www.w3.org/2000/svg" xmlns:xlink="http://www.w3.org/1999/xlink" x="0px" y="0px"
	 viewBox="0 0 1488.122 1641.591" enable-background="new 0 0 1488.122 1641.591" xml:space="preserve">
<g id="Man_Head_Silhouette">
</g>
<g>
	<path d="M400.057,939.451c-0.769,0-32.815,24.61-33.433,25.068c-44.219,32.778-38.804,28.08-36.872,33.959
		c3.797,11.592-5.461,9.409,1.838,16.404c5.532,5.313,63.608,54.699,70.935,50.315c4.219-2.52,68.775-48.156,68.775-54.162
		c0-4.747-5.624-3.33,1.047-16.328C463.663,986.469,400.29,939.451,400.057,939.451z"/>
	<path d="M393.028,933.587c-3.049-7.579-2.984-7.479-2.984-9.256c-0.121,0-0.234,0-0.355,0c0-14.043,18.789,1.101-42.622-44.92
		c-26.696-20.017-24.279-18.552-26.565-19.606v0.725c-3.746,2.186-9.929,7.073-14.547,10.701
		c-69.642,54.652-55.846,37.013-54.19,53.1h0c-1.32,11.118-7.257,5.767,9.838,19.852c1.778,1.467,32.196,28.028,58.898,44.252v0.365
		C322.28,987.984,364.623,959.084,393.028,933.587z"/>
	<path d="M708.817,933.587c-3.049-7.579-2.984-7.479-2.984-9.256c-0.121,0-0.234,0-0.355,0c0-14.043,18.789,1.101-42.622-44.92
		c-26.696-20.017-24.279-18.552-26.565-19.606v0.725c-3.746,2.186-9.929,7.073-14.547,10.701
		c-69.642,54.652-55.846,37.013-54.19,53.1h0c-1.32,11.118-7.257,5.767,9.838,19.852c1.778,1.467,32.196,28.028,58.898,44.252v0.365
		C638.069,987.984,680.412,959.084,708.817,933.587z"/>
	<path d="M550.922,933.587c-3.049-7.579-2.984-7.479-2.984-9.256c-0.121,0-0.234,0-0.355,0c0-14.043,18.789,1.101-42.622-44.92
		c-26.696-20.017-24.279-18.552-26.565-19.606v0.725c-3.746,2.186-9.929,7.073-14.547,10.701
		c-69.642,54.652-55.846,37.013-54.19,53.1h0c-1.32,11.118-7.257,5.767,9.838,19.852c1.779,1.467,32.196,28.028,58.898,44.252v0.365
		C480.175,987.984,522.517,959.084,550.922,933.587z"/>
	<path d="M242.163,939.451c-0.769,0-32.815,24.61-33.433,25.068c-44.219,32.778-38.804,28.08-36.872,33.959
		c3.797,11.592-5.461,9.409,1.838,16.404c5.532,5.313,63.608,54.699,70.935,50.315c4.219-2.52,68.775-48.156,68.775-54.162
		c0-4.747-5.624-3.33,1.047-16.328C305.768,986.469,242.396,939.451,242.163,939.451z"/>
	<path d="M112.343,1118.196c-0.325,3.738,0.71,7.482,3.758,11.174c11.816,13.642,26.939,28.581,34.725,45.37
		c2.934-2.761,4.686-4.824,4.686-5.811c0-4.747-5.624-3.33,1.047-16.328C151.794,1148.082,130.571,1131.892,112.343,1118.196z"/>
	<path d="M347.066,563.621c-26.696-20.017-24.279-18.552-26.565-19.606v0.725c-3.746,2.186-9.929,7.073-14.547,10.701
		c-69.642,54.652-55.846,37.013-54.19,53.1h0c-1.32,11.118-7.257,5.767,9.838,19.852c1.778,1.467,32.196,28.028,58.898,44.252v0.365
		c1.779-0.815,44.121-29.715,72.527-55.213c-3.049-7.579-2.984-7.479-2.984-9.256c-0.121,0-0.234,0-0.355,0
		C389.688,594.498,408.477,609.642,347.066,563.621z"/>
	<path d="M235.133,1091.481c-3.049-7.579-2.984-7.479-2.984-9.256c-0.121,0-0.234,0-0.355,0c0-14.043,18.789,1.101-42.622-44.92
		c-26.696-20.018-24.279-18.552-26.565-19.606v0.725c-3.746,2.186-9.929,7.073-14.547,10.701
		c-12.623,9.906-22.493,17.427-30.202,23.214c6.307,5.577,13.885,10.438,21.135,16.288c12.094,9.533-16.293,25.548-24.544,42.476
		c11.586,9.54,30.668,24.6,48.158,35.227v0.365C164.386,1145.879,206.728,1116.979,235.133,1091.481z"/>
	<path d="M504.96,721.516c-26.696-20.017-24.279-18.552-26.565-19.606v0.725c-3.746,2.186-9.929,7.073-14.547,10.701
		c-69.642,54.652-55.846,37.013-54.19,53.101h0c-1.32,11.118-7.257,5.767,9.838,19.852c1.779,1.467,32.196,28.028,58.898,44.252
		v0.365c1.779-0.815,44.122-29.715,72.527-55.213c-3.049-7.579-2.984-7.479-2.984-9.256c-0.121,0-0.234,0-0.355,0
		C547.583,752.393,566.371,767.537,504.96,721.516z"/>
	<path d="M866.711,933.587c-3.049-7.579-2.984-7.479-2.984-9.256c-0.121,0-0.233,0-0.355,0c0-14.043,18.789,1.101-42.623-44.92
		c-26.696-20.017-24.279-18.552-26.565-19.606v0.725c-3.745,2.186-9.929,7.073-14.547,10.701
		c-69.642,54.652-55.846,37.013-54.19,53.1h0c-1.32,11.118-7.257,5.767,9.838,19.852c1.778,1.467,32.196,28.028,58.898,44.252v0.365
		C795.964,987.984,838.306,959.084,866.711,933.587z"/>
	<path d="M216.484,426.193c-3.064,13.604-5.515,27.28-7.34,40.98c-0.67,5.078-1.076,10.155-1.216,15.24
		c9.351-7.267,18.877-15.034,27.205-22.51c-3.049-7.579-2.984-7.479-2.984-9.256c-0.121,0-0.234,0-0.355,0
		C231.794,439.316,244.015,446.979,216.484,426.193z"/>
	<path d="M347.066,405.727c-26.696-20.017-24.279-18.552-26.565-19.606v0.725c-3.746,2.186-9.929,7.073-14.547,10.701
		c-69.642,54.652-55.846,37.013-54.19,53.101h0c-1.32,11.118-7.257,5.767,9.838,19.852c1.778,1.467,32.196,28.028,58.898,44.252
		v0.365c1.779-0.815,44.121-29.715,72.527-55.213c-3.049-7.579-2.984-7.479-2.984-9.256c-0.121,0-0.234,0-0.355,0
		C389.688,436.604,408.477,451.748,347.066,405.727z"/>
	<path d="M504.96,563.621c-26.696-20.017-24.279-18.552-26.565-19.606v0.725c-3.746,2.186-9.929,7.073-14.547,10.701
		c-69.642,54.652-55.846,37.013-54.19,53.1h0c-1.32,11.118-7.257,5.767,9.838,19.852c1.779,1.467,32.196,28.028,58.898,44.252v0.365
		c1.779-0.815,44.122-29.715,72.527-55.213c-3.049-7.579-2.984-7.479-2.984-9.256c-0.121,0-0.234,0-0.355,0
		C547.583,594.498,566.371,609.642,504.96,563.621z"/>
	<path d="M662.855,563.621c-26.696-20.017-24.279-18.552-26.565-19.606v0.725c-3.746,2.186-9.929,7.073-14.547,10.701
		c-69.642,54.652-55.846,37.013-54.19,53.1h0c-1.32,11.118-7.257,5.767,9.838,19.852c1.778,1.467,32.196,28.028,58.898,44.252v0.365
		c1.779-0.815,44.121-29.715,72.527-55.213c-3.049-7.579-2.984-7.479-2.984-9.256c-0.121,0-0.234,0-0.355,0
		C705.477,594.498,724.266,609.642,662.855,563.621z"/>
	<path d="M128.927,1288.629c-4.595,21.085-4.949,40.955,4.698,58.271c12.153-9.437,21.887-17.744,21.887-20.076
		c0-4.747-5.624-3.33,1.047-16.328C153.214,1307.324,141.76,1298.402,128.927,1288.629z"/>
	<path d="M820.749,563.621c-26.696-20.017-24.279-18.552-26.565-19.606v0.725c-3.745,2.186-9.929,7.073-14.547,10.701
		c-69.642,54.652-55.846,37.013-54.19,53.1h0c-1.32,11.118-7.257,5.767,9.838,19.852c1.778,1.467,32.196,28.028,58.898,44.252v0.365
		c1.779-0.815,44.121-29.715,72.527-55.213c-3.049-7.579-2.984-7.479-2.984-9.256c-0.121,0-0.233,0-0.355,0
		C863.372,594.498,882.16,609.642,820.749,563.621z"/>
	<path d="M1340.395,933.587c-3.049-7.579-2.984-7.479-2.984-9.256c-0.121,0-0.234,0-0.355,0c0-14.043,18.789,1.101-42.622-44.92
		c-26.696-20.017-24.279-18.552-26.565-19.606v0.725c-3.745,2.186-9.929,7.073-14.547,10.701
		c-69.642,54.652-55.846,37.013-54.19,53.1h0c-1.32,11.118-7.257,5.767,9.838,19.852c1.778,1.467,32.196,28.028,58.898,44.252v0.365
		C1269.647,987.984,1311.99,959.084,1340.395,933.587z"/>
	<path d="M235.133,1249.376c-3.049-7.579-2.984-7.479-2.984-9.256c-0.121,0-0.234,0-0.355,0c0-14.043,18.789,1.102-42.622-44.92
		c-26.696-20.017-24.279-18.552-26.565-19.606v0.725c-2.312,1.35-5.553,3.729-8.782,6.205c2.601,8.515,3.062,17.492,0.089,27.006
		c-7.086,24.207-17.41,48.893-23.374,72.291c9.872,7.597,21.272,15.844,32.067,22.403v0.365
		C164.386,1303.774,206.728,1274.874,235.133,1249.376z"/>
	<path d="M1452.327,721.516c-26.696-20.017-24.279-18.552-26.565-19.606v0.725c-3.746,2.186-9.929,7.073-14.547,10.701
		c-69.642,54.652-55.846,37.013-54.19,53.101h0c-1.32,11.118-7.257,5.767,9.838,19.852c1.779,1.467,32.196,28.028,58.898,44.252
		v0.365c0.241-0.11,1.228-0.738,2.817-1.797c11.803-35.412,20.982-70.362,27.613-104.697
		C1454.937,723.471,1453.658,722.513,1452.327,721.516z"/>
	<path d="M1278.957,1014.881c2.528,2.427,16.026,14.057,30.641,25.554c19.027-29.715,39.954-57.889,58.584-85.618
		c-11.667-8.726-20.671-15.366-20.758-15.366c-0.769,0-32.815,24.61-33.433,25.068c-44.219,32.778-38.804,28.08-36.872,33.959
		C1280.916,1010.069,1271.658,1007.886,1278.957,1014.881z"/>
	<path d="M1182.5,933.587c-3.049-7.579-2.984-7.479-2.984-9.256c-0.121,0-0.234,0-0.355,0c0-14.043,18.789,1.101-42.622-44.92
		c-26.696-20.017-24.279-18.552-26.565-19.606v0.725c-3.746,2.186-9.929,7.073-14.547,10.701
		c-69.642,54.652-55.846,37.013-54.19,53.1h0c-1.32,11.118-7.257,5.767,9.838,19.852c1.778,1.467,32.196,28.028,58.898,44.252v0.365
		C1111.753,987.984,1154.095,959.084,1182.5,933.587z"/>
	<path d="M400.057,623.661c-0.769,0-32.815,24.61-33.433,25.068c-44.219,32.778-38.804,28.08-36.872,33.959
		c3.797,11.592-5.461,9.409,1.838,16.404c5.532,5.313,63.608,54.699,70.935,50.315c4.219-2.52,68.775-48.156,68.775-54.162
		c0-4.747-5.624-3.33,1.047-16.328C463.663,670.68,400.29,623.661,400.057,623.661z"/>
	<path d="M820.749,721.516c-26.696-20.017-24.279-18.552-26.565-19.606v0.725c-3.745,2.186-9.929,7.073-14.547,10.701
		c-69.642,54.652-55.846,37.013-54.19,53.101h0c-1.32,11.118-7.257,5.767,9.838,19.852c1.778,1.467,32.196,28.028,58.898,44.252
		v0.365c1.779-0.815,44.121-29.715,72.527-55.213c-3.049-7.579-2.984-7.479-2.984-9.256c-0.121,0-0.233,0-0.355,0
		C863.372,752.393,882.16,767.537,820.749,721.516z"/>
	<path d="M662.855,721.516c-26.696-20.017-24.279-18.552-26.565-19.606v0.725c-3.746,2.186-9.929,7.073-14.547,10.701
		c-69.642,54.652-55.846,37.013-54.19,53.101h0c-1.32,11.118-7.257,5.767,9.838,19.852c1.778,1.467,32.196,28.028,58.898,44.252
		v0.365c1.779-0.815,44.121-29.715,72.527-55.213c-3.049-7.579-2.984-7.479-2.984-9.256c-0.121,0-0.234,0-0.355,0
		C705.477,752.393,724.266,767.537,662.855,721.516z"/>
	<path d="M242.163,465.767c-0.769,0-32.815,24.61-33.433,25.068c-0.258,0.191-0.506,0.375-0.761,0.564
		c0.668,18.387,4.978,36.921,13.617,55.936c-4.441,6.934-9.33,14.123-14.571,21.513c16.592,12.907,33.839,24.923,37.615,22.665
		c4.219-2.52,68.775-48.156,68.775-54.162c0-4.747-5.624-3.33,1.047-16.328C305.768,512.785,242.396,465.767,242.163,465.767z"/>
	<path d="M560.42,907.302c4.219-2.52,68.775-48.156,68.775-54.162c0-4.747-5.623-3.33,1.047-16.328
		c-8.685-8.237-72.057-55.256-72.29-55.256c-0.769,0-32.814,24.61-33.433,25.068c-44.218,32.778-38.804,28.08-36.872,33.959
		c3.797,11.592-5.461,9.408,1.838,16.404C495.017,862.299,553.093,911.685,560.42,907.302z"/>
	<path d="M718.314,907.302c4.219-2.52,68.775-48.156,68.775-54.162c0-4.747-5.624-3.33,1.046-16.328
		c-8.684-8.237-72.057-55.256-72.29-55.256c-0.769,0-32.815,24.61-33.433,25.068c-44.219,32.778-38.804,28.08-36.872,33.959
		c3.797,11.592-5.461,9.408,1.838,16.404C652.912,862.299,710.987,911.685,718.314,907.302z"/>
	<path d="M1340.395,775.692c-3.049-7.579-2.984-7.479-2.984-9.256c-0.121,0-0.234,0-0.355,0c0-14.043,18.789,1.101-42.622-44.92
		c-26.696-20.017-24.279-18.552-26.565-19.606v0.725c-3.745,2.186-9.929,7.073-14.547,10.701
		c-69.642,54.652-55.846,37.013-54.19,53.101h0c-1.32,11.118-7.257,5.767,9.838,19.852c1.778,1.467,32.196,28.028,58.898,44.252
		v0.365C1269.647,830.09,1311.99,801.19,1340.395,775.692z"/>
	<path d="M876.209,907.302c4.219-2.52,68.775-48.156,68.775-54.162c0-4.747-5.624-3.33,1.047-16.328
		c-8.684-8.237-72.057-55.256-72.29-55.256c-0.769,0-32.815,24.61-33.433,25.068c-44.219,32.778-38.804,28.08-36.872,33.959
		c3.797,11.592-5.461,9.408,1.838,16.404C810.806,862.299,868.882,911.685,876.209,907.302z"/>
	<path d="M1278.957,856.986c5.532,5.313,63.608,54.699,70.935,50.315c4.219-2.52,68.775-48.156,68.775-54.162
		c0-4.747-5.624-3.33,1.047-16.328c-8.685-8.237-72.057-55.256-72.29-55.256c-0.769,0-32.815,24.61-33.433,25.068
		c-44.219,32.778-38.804,28.08-36.872,33.959C1280.916,852.174,1271.658,849.991,1278.957,856.986z"/>
	<path d="M1366.864,944.183c0.408,0.336,2.336,2.004,5.367,4.553c15.066-22.814,28.363-45.381,37.531-68.312
		c1.553-3.881,3.066-7.757,4.557-11.629c-1.079,0.843-2.128,1.667-3.104,2.435c-69.642,54.652-55.846,37.013-54.19,53.1h0
		C1355.706,935.449,1349.769,930.098,1366.864,944.183z"/>
	<path d="M203.226,574.141c-18.694,25.885-41.383,54.045-64.366,82.373c7.687,5.67,15.876,11.35,23.746,16.132v0.365
		c1.779-0.815,44.122-29.715,72.527-55.213c-3.049-7.579-2.984-7.479-2.984-9.256c-0.121,0-0.234,0-0.355,0
		C231.794,595.7,247.491,607.254,203.226,574.141z"/>
	<path d="M235.133,933.587c-3.049-7.579-2.984-7.479-2.984-9.256c-0.121,0-0.234,0-0.355,0c0-14.043,18.789,1.101-42.622-44.92
		c-26.696-20.017-24.279-18.552-26.565-19.606v0.725c-3.746,2.186-9.929,7.073-14.547,10.701
		c-21.29,16.707-34.772,26.652-43.198,32.876c12.538,1.701,24.221,3.932,32.636,14.158c9.832,12.298-3.156,32.855-6.351,48.233
		c9.731,7.467,20.884,15.512,31.46,21.938v0.365C164.386,987.984,206.728,959.084,235.133,933.587z"/>
	<path d="M400.057,781.556c-0.769,0-32.815,24.61-33.433,25.068c-44.219,32.778-38.804,28.08-36.872,33.959
		c3.797,11.592-5.461,9.408,1.838,16.404c5.532,5.313,63.608,54.699,70.935,50.315c4.219-2.52,68.775-48.156,68.775-54.162
		c0-4.747-5.624-3.33,1.047-16.328C463.663,828.575,400.29,781.556,400.057,781.556z"/>
	<path d="M130.182,973.795c-4.9,21.052-29.224,33.268-26.517,54.502c1.155,7.697,4.396,13.605,8.821,18.681
		c19.561-14.298,43.026-32.323,43.026-35.944c0-4.747-5.624-3.33,1.047-16.328C153.323,991.639,142.501,983.19,130.182,973.795z"/>
	<path d="M242.163,781.556c-0.769,0-32.815,24.61-33.433,25.068c-44.219,32.778-38.804,28.08-36.872,33.959
		c3.797,11.592-5.461,9.408,1.838,16.404c5.532,5.313,63.608,54.699,70.935,50.315c4.219-2.52,68.775-48.156,68.775-54.162
		c0-4.747-5.624-3.33,1.047-16.328C305.768,828.575,242.396,781.556,242.163,781.556z"/>
	<path d="M393.028,775.692c-3.049-7.579-2.984-7.479-2.984-9.256c-0.121,0-0.234,0-0.355,0c0-14.043,18.789,1.101-42.622-44.92
		c-26.696-20.017-24.279-18.552-26.565-19.606v0.725c-3.746,2.186-9.929,7.073-14.547,10.701
		c-69.642,54.652-55.846,37.013-54.19,53.101h0c-1.32,11.118-7.257,5.767,9.838,19.852c1.778,1.467,32.196,28.028,58.898,44.252
		v0.365C322.28,830.09,364.623,801.19,393.028,775.692z"/>
	<path d="M84.268,781.556c-0.769,0-32.815,24.61-33.433,25.068c-15.162,11.239-24.487,18.071-30.119,22.435
		c-0.451,1.728-0.845,3.423-1.139,5.061c-6.968,38.337,38.311,51.78,60.206,65.224c4.577,1.527,9.249,2.48,13.901,3.216
		c17.653-12.366,61.827-44.451,61.827-49.42c0-4.747-5.624-3.33,1.047-16.328C147.873,828.575,84.501,781.556,84.268,781.556z"/>
	<path d="M74.255,766.436c-0.121,0-0.234,0-0.355,0c0-10.018,9.554-5.188-7.262-18.302c-18.853,25.771-33.992,49.424-41.883,68.946
		c15.19-10.926,36.143-26.719,52.485-41.389C74.19,768.113,74.255,768.212,74.255,766.436z"/>
	<path d="M242.163,623.661c-0.769,0-32.815,24.61-33.433,25.068c-44.219,32.778-38.804,28.08-36.872,33.959
		c3.797,11.592-5.461,9.409,1.838,16.404c5.532,5.313,63.608,54.699,70.935,50.315c4.219-2.52,68.775-48.156,68.775-54.162
		c0-4.747-5.624-3.33,1.047-16.328C305.768,670.68,242.396,623.661,242.163,623.661z"/>
	<path d="M134.79,661.53c-22.409,27.606-44.879,55.247-64.001,80.979c7.801,5.105,13.885,8.132,15.948,6.898
		c4.219-2.52,68.775-48.156,68.775-54.162c0-4.747-5.624-3.33,1.047-16.328C153.734,676.239,145.127,669.459,134.79,661.53z"/>
	<path d="M235.133,775.692c-3.049-7.579-2.984-7.479-2.984-9.256c-0.121,0-0.234,0-0.355,0c0-14.043,18.789,1.101-42.622-44.92
		c-26.696-20.017-24.279-18.552-26.565-19.606v0.725c-3.746,2.186-9.929,7.073-14.547,10.701
		c-69.642,54.652-55.846,37.013-54.19,53.101h0c-1.32,11.118-7.257,5.767,9.838,19.852c1.778,1.467,32.196,28.028,58.898,44.252
		v0.365C164.386,830.09,206.728,801.19,235.133,775.692z"/>
	<path d="M1024.606,933.587c-3.049-7.579-2.984-7.479-2.984-9.256c-0.121,0-0.234,0-0.355,0c0-14.043,18.789,1.101-42.622-44.92
		c-26.696-20.017-24.279-18.552-26.565-19.606v0.725c-3.746,2.186-9.929,7.073-14.547,10.701
		c-69.642,54.652-55.846,37.013-54.19,53.1h0c-1.32,11.118-7.257,5.767,9.838,19.852c1.778,1.467,32.196,28.028,58.898,44.252v0.365
		C953.858,987.984,996.201,959.084,1024.606,933.587z"/>
	<path d="M1208.97,1259.973c1.623,1.339,27.115,23.589,51.86,39.799c-4.81-44.752-7.458-84.313-6.788-113.318
		c-0.243,0.191-0.485,0.381-0.72,0.566c-69.642,54.652-55.846,37.013-54.19,53.101h0
		C1197.811,1251.239,1191.875,1245.887,1208.97,1259.973z"/>
	<path d="M329.506,208.345c0.085,0.205,0.169,0.423,0.246,0.659c3.797,11.591-5.461,9.408,1.838,16.404
		c5.532,5.313,63.608,54.699,70.935,50.315c4.219-2.52,68.775-48.156,68.775-54.162c0-4.747-5.624-3.33,1.047-16.328
		c-8.685-8.237-72.057-55.256-72.29-55.256c-0.769,0-32.815,24.61-33.433,25.068c-7.712,5.717-13.911,10.291-18.886,13.983
		C341.455,195.343,335.379,201.787,329.506,208.345z"/>
	<path d="M866.711,1407.271c-3.049-7.579-2.984-7.48-2.984-9.256c-0.121,0-0.233,0-0.355,0c0-14.043,18.789,1.101-42.623-44.92
		c-26.696-20.017-24.279-18.552-26.565-19.606v0.725c-3.745,2.186-9.929,7.073-14.547,10.701
		c-69.642,54.652-55.846,37.013-54.19,53.1h0c-1.32,11.119-7.257,5.767,9.838,19.852c1.778,1.467,32.196,28.028,58.898,44.252v0.365
		C795.964,1461.669,838.306,1432.768,866.711,1407.271z"/>
	<path d="M1281.985,1452.883c-6.433-39.54-12.272-79.388-16.937-116.85c-3.602,2.482-8.136,6.059-11.728,8.881
		c-69.642,54.652-55.846,37.013-54.19,53.1h0c-1.32,11.119-7.257,5.767,9.838,19.852c1.778,1.467,32.196,28.028,58.898,44.252v0.365
		C1268.483,1462.202,1273.938,1458.569,1281.985,1452.883z"/>
	<path d="M1182.5,1407.271c-3.049-7.579-2.984-7.48-2.984-9.256c-0.121,0-0.234,0-0.355,0c0-14.043,18.789,1.101-42.622-44.92
		c-26.696-20.017-24.279-18.552-26.565-19.606v0.725c-3.746,2.186-9.929,7.073-14.547,10.701
		c-69.642,54.652-55.846,37.013-54.19,53.1h0c-1.32,11.119-7.257,5.767,9.838,19.852c1.778,1.467,32.196,28.028,58.898,44.252v0.365
		C1111.753,1461.669,1154.095,1432.768,1182.5,1407.271z"/>
	<path d="M1024.606,1407.271c-3.049-7.579-2.984-7.48-2.984-9.256c-0.121,0-0.234,0-0.355,0c0-14.043,18.789,1.101-42.622-44.92
		c-26.696-20.017-24.279-18.552-26.565-19.606v0.725c-3.746,2.186-9.929,7.073-14.547,10.701
		c-69.642,54.652-55.846,37.013-54.19,53.1h0c-1.32,11.119-7.257,5.767,9.838,19.852c1.778,1.467,32.196,28.028,58.898,44.252v0.365
		C953.858,1461.669,996.201,1432.768,1024.606,1407.271z"/>
	<path d="M820.749,247.832c-26.696-20.017-24.279-18.552-26.565-19.606v0.725c-3.745,2.186-9.929,7.073-14.547,10.701
		c-69.642,54.652-55.846,37.013-54.19,53.1h0c-1.32,11.118-7.257,5.767,9.838,19.852c1.778,1.467,32.196,28.028,58.898,44.252v0.365
		c1.779-0.815,44.121-29.715,72.527-55.213c-3.049-7.578-2.984-7.479-2.984-9.256c-0.121,0-0.233,0-0.355,0
		C863.372,278.709,882.16,293.853,820.749,247.832z"/>
	<path d="M504.96,247.832c-26.696-20.017-24.279-18.552-26.565-19.606v0.725c-3.746,2.186-9.929,7.073-14.547,10.701
		c-69.642,54.652-55.846,37.013-54.19,53.1h0c-1.32,11.118-7.257,5.767,9.838,19.852c1.779,1.467,32.196,28.028,58.898,44.252v0.365
		c1.779-0.815,44.122-29.715,72.527-55.213c-3.049-7.578-2.984-7.479-2.984-9.256c-0.121,0-0.234,0-0.355,0
		C547.583,278.709,566.371,293.853,504.96,247.832z"/>
	<path d="M1199.131,134.857c-1.32,11.118-7.257,5.767,9.838,19.852c1.778,1.467,32.196,28.028,58.898,44.252v0.365
		c0.807-0.37,9.956-6.516,22.365-15.501c-26.604-23.264-56.014-44.407-88.14-63.18
		C1193.336,127.46,1198.19,125.715,1199.131,134.857L1199.131,134.857z"/>
	<path d="M662.855,247.832c-26.696-20.017-24.279-18.552-26.565-19.606v0.725c-3.746,2.186-9.929,7.073-14.547,10.701
		c-69.642,54.652-55.846,37.013-54.19,53.1h0c-1.32,11.118-7.257,5.767,9.838,19.852c1.778,1.467,32.196,28.028,58.898,44.252v0.365
		c1.779-0.815,44.121-29.715,72.527-55.213c-3.049-7.578-2.984-7.479-2.984-9.256c-0.121,0-0.234,0-0.355,0
		C705.477,278.709,724.266,293.853,662.855,247.832z"/>
	<path d="M708.817,1407.271c-3.049-7.579-2.984-7.48-2.984-9.256c-0.121,0-0.234,0-0.355,0c0-14.043,18.789,1.101-42.622-44.92
		c-26.696-20.017-24.279-18.552-26.565-19.606v0.725c-3.746,2.186-9.929,7.073-14.547,10.701
		c-69.642,54.652-55.846,37.013-54.19,53.1h0c-1.32,11.119-7.257,5.767,9.838,19.852c1.778,1.467,32.196,28.028,58.898,44.252v0.365
		C638.069,1461.669,680.412,1432.768,708.817,1407.271z"/>
	<path d="M1024.606,1565.165c-3.049-7.578-2.984-7.479-2.984-9.256c-0.121,0-0.234,0-0.355,0c0-14.042,18.789,1.102-42.622-44.92
		c-26.696-20.017-24.279-18.552-26.565-19.606v0.725c-3.746,2.186-9.929,7.073-14.547,10.7
		c-69.642,54.652-55.846,37.013-54.19,53.101h0c-1.32,11.119-7.257,5.767,9.838,19.852c1.778,1.467,32.196,28.028,58.898,44.252
		v0.365C953.858,1619.563,996.201,1590.663,1024.606,1565.165z"/>
	<path d="M1278.957,1488.565c1.25,1.2,5.186,4.653,10.607,9.223c-2.122-12.139-4.207-24.408-6.239-36.726
		c-10.148,7.913-7.454,7.302-6.206,11.099C1280.916,1483.753,1271.658,1481.57,1278.957,1488.565z"/>
	<path d="M866.711,1565.165c-3.049-7.578-2.984-7.479-2.984-9.256c-0.121,0-0.233,0-0.355,0c0-14.042,18.79,1.102-42.623-44.92
		c-26.696-20.017-24.279-18.552-26.565-19.606v0.725c-3.745,2.186-9.929,7.073-14.547,10.7
		c-69.642,54.652-55.846,37.013-54.19,53.101h0c-1.32,11.119-7.257,5.767,9.838,19.852c1.778,1.467,32.196,28.028,58.898,44.252
		v0.365C795.964,1619.563,838.306,1590.663,866.711,1565.165z"/>
	<path d="M1307.306,1592.202c-5.282-26.131-10.633-54.317-15.803-83.411c-23.574-17.7-21.437-16.394-23.635-17.407v0.725
		c-3.745,2.186-9.929,7.073-14.547,10.7c-69.642,54.652-55.846,37.013-54.19,53.101h0c-1.32,11.119-7.257,5.767,9.838,19.852
		c1.778,1.467,32.196,28.028,58.898,44.252v0.365C1269.016,1619.853,1287.035,1607.644,1307.306,1592.202z"/>
	<path d="M1182.5,1565.165c-3.049-7.578-2.984-7.479-2.984-9.256c-0.121,0-0.234,0-0.355,0c0-14.042,18.79,1.102-42.622-44.92
		c-26.696-20.017-24.279-18.552-26.565-19.606v0.725c-3.746,2.186-9.929,7.073-14.547,10.7
		c-69.642,54.652-55.846,37.013-54.19,53.101h0c-1.32,11.119-7.257,5.767,9.838,19.852c1.778,1.467,32.196,28.028,58.898,44.252
		v0.365C1111.753,1619.563,1154.095,1590.663,1182.5,1565.165z"/>
	<path d="M708.817,1565.165c-3.049-7.578-2.984-7.479-2.984-9.256c-0.121,0-0.234,0-0.355,0c0-14.042,18.79,1.102-42.622-44.92
		c-26.696-20.017-24.279-18.552-26.565-19.606v0.725c-3.746,2.186-9.929,7.073-14.547,10.7
		c-69.642,54.652-55.846,37.013-54.19,53.101h0c-1.32,11.119-7.257,5.767,9.838,19.852c1.778,1.467,32.196,28.028,58.898,44.252
		v0.365C638.069,1619.563,680.412,1590.663,708.817,1565.165z"/>
	<path d="M961.33,51.109c3.797,11.591-5.461,9.408,1.838,16.404c5.532,5.313,63.608,54.699,70.935,50.315
		c3.391-2.025,45.74-31.891,62.245-46.661c-38.892-14.255-80.576-25.721-124.957-34.111
		C956.771,48.114,959.944,46.893,961.33,51.109z"/>
	<path d="M820.749,89.937c-26.696-20.017-24.279-18.552-26.565-19.606v0.725c-3.745,2.186-9.929,7.073-14.547,10.701
		c-69.642,54.652-55.846,37.013-54.19,53.101h0c-1.32,11.118-7.257,5.767,9.838,19.852c1.778,1.467,32.196,28.028,58.898,44.252
		v0.365c1.779-0.815,44.121-29.715,72.527-55.213c-3.049-7.578-2.984-7.479-2.984-9.256c-0.121,0-0.233,0-0.355,0
		C863.372,120.814,882.16,135.958,820.749,89.937z"/>
	<path d="M504.96,89.937c-3.007-2.254-5.626-4.223-7.943-5.967c-31.73,15.16-60.914,32.676-87.538,52.124
		c-1.577,9.479-6.401,5.088,10.017,18.615c1.779,1.467,32.196,28.028,58.898,44.252v0.365c1.779-0.815,44.122-29.715,72.527-55.213
		c-3.049-7.578-2.984-7.479-2.984-9.256c-0.121,0-0.234,0-0.355,0C547.583,120.814,566.371,135.958,504.96,89.937z"/>
	<path d="M662.855,89.937c-26.696-20.017-24.279-18.552-26.565-19.606v0.725c-3.746,2.186-9.929,7.073-14.547,10.701
		c-69.642,54.652-55.846,37.013-54.19,53.101h0c-1.32,11.118-7.257,5.767,9.838,19.852c1.778,1.467,32.196,28.028,58.898,44.252
		v0.365c1.779-0.815,44.121-29.715,72.527-55.213c-3.049-7.578-2.984-7.479-2.984-9.256c-0.121,0-0.234,0-0.355,0
		C705.477,120.814,724.266,135.958,662.855,89.937z"/>
	<path d="M866.711,1091.481c-3.049-7.579-2.984-7.479-2.984-9.256c-0.121,0-0.233,0-0.355,0c0-14.043,18.789,1.101-42.623-44.92
		c-26.696-20.018-24.279-18.552-26.565-19.606v0.725c-3.745,2.186-9.929,7.073-14.547,10.701
		c-69.642,54.652-55.846,37.013-54.19,53.101h0c-1.32,11.118-7.257,5.767,9.838,19.852c1.778,1.467,32.196,28.028,58.898,44.252
		v0.365C795.964,1145.879,838.306,1116.979,866.711,1091.481z"/>
	<path d="M1182.5,1249.376c-3.049-7.579-2.984-7.479-2.984-9.256c-0.121,0-0.234,0-0.355,0c0-14.043,18.789,1.102-42.622-44.92
		c-26.696-20.017-24.279-18.552-26.565-19.606v0.725c-3.746,2.186-9.929,7.073-14.547,10.701
		c-69.642,54.652-55.846,37.013-54.19,53.101h0c-1.32,11.118-7.257,5.767,9.838,19.852c1.778,1.467,32.196,28.028,58.898,44.252
		v0.365C1111.753,1303.774,1154.095,1274.874,1182.5,1249.376z"/>
	<path d="M1024.606,1091.481c-3.049-7.579-2.984-7.479-2.984-9.256c-0.121,0-0.234,0-0.355,0c0-14.043,18.789,1.101-42.622-44.92
		c-26.696-20.018-24.279-18.552-26.565-19.606v0.725c-3.746,2.186-9.929,7.073-14.547,10.701
		c-69.642,54.652-55.846,37.013-54.19,53.101h0c-1.32,11.118-7.257,5.767,9.838,19.852c1.778,1.467,32.196,28.028,58.898,44.252
		v0.365C953.858,1145.879,996.201,1116.979,1024.606,1091.481z"/>
	<path d="M1182.5,1091.481c-3.049-7.579-2.984-7.479-2.984-9.256c-0.121,0-0.234,0-0.355,0c0-14.043,18.789,1.101-42.622-44.92
		c-26.696-20.018-24.279-18.552-26.565-19.606v0.725c-3.746,2.186-9.929,7.073-14.547,10.701
		c-69.642,54.652-55.846,37.013-54.19,53.101h0c-1.32,11.118-7.257,5.767,9.838,19.852c1.778,1.467,32.196,28.028,58.898,44.252
		v0.365C1111.753,1145.879,1154.095,1116.979,1182.5,1091.481z"/>
	<path d="M820.749,405.727c-26.696-20.017-24.279-18.552-26.565-19.606v0.725c-3.745,2.186-9.929,7.073-14.547,10.701
		c-69.642,54.652-55.846,37.013-54.19,53.101h0c-1.32,11.118-7.257,5.767,9.838,19.852c1.778,1.467,32.196,28.028,58.898,44.252
		v0.365c1.779-0.815,44.121-29.715,72.527-55.213c-3.049-7.579-2.984-7.479-2.984-9.256c-0.121,0-0.233,0-0.355,0
		C863.372,436.604,882.16,451.748,820.749,405.727z"/>
	<path d="M662.855,405.727c-26.696-20.017-24.279-18.552-26.565-19.606v0.725c-3.746,2.186-9.929,7.073-14.547,10.701
		c-69.642,54.652-55.846,37.013-54.19,53.101h0c-1.32,11.118-7.257,5.767,9.838,19.852c1.778,1.467,32.196,28.028,58.898,44.252
		v0.365c1.779-0.815,44.121-29.715,72.527-55.213c-3.049-7.579-2.984-7.479-2.984-9.256c-0.121,0-0.234,0-0.355,0
		C705.477,436.604,724.266,451.748,662.855,405.727z"/>
	<path d="M242.163,1097.346c-0.769,0-32.815,24.61-33.433,25.068c-44.219,32.778-38.804,28.08-36.872,33.959
		c3.797,11.592-5.461,9.409,1.838,16.404c5.532,5.313,63.608,54.698,70.935,50.315c4.219-2.52,68.775-48.156,68.775-54.162
		c0-4.747-5.624-3.33,1.047-16.328C305.768,1144.364,242.396,1097.346,242.163,1097.346z"/>
	<path d="M393.028,1091.481c-3.049-7.579-2.984-7.479-2.984-9.256c-0.121,0-0.234,0-0.355,0c0-14.043,18.789,1.101-42.622-44.92
		c-26.696-20.018-24.279-18.552-26.565-19.606v0.725c-3.746,2.186-9.929,7.073-14.547,10.701
		c-69.642,54.652-55.846,37.013-54.19,53.101h0c-1.32,11.118-7.257,5.767,9.838,19.852c1.778,1.467,32.196,28.028,58.898,44.252
		v0.365C322.28,1145.879,364.623,1116.979,393.028,1091.481z"/>
	<path d="M504.96,405.727c-26.696-20.017-24.279-18.552-26.565-19.606v0.725c-3.746,2.186-9.929,7.073-14.547,10.701
		c-69.642,54.652-55.846,37.013-54.19,53.101h0c-1.32,11.118-7.257,5.767,9.838,19.852c1.779,1.467,32.196,28.028,58.898,44.252
		v0.365c1.779-0.815,44.122-29.715,72.527-55.213c-3.049-7.579-2.984-7.479-2.984-9.256c-0.121,0-0.234,0-0.355,0
		C547.583,436.604,566.371,451.748,504.96,405.727z"/>
	<path d="M400.057,1097.346c-0.769,0-32.815,24.61-33.433,25.068c-44.219,32.778-38.804,28.08-36.872,33.959
		c3.797,11.592-5.461,9.409,1.838,16.404c5.532,5.313,63.608,54.698,70.935,50.315c4.219-2.52,68.775-48.156,68.775-54.162
		c0-4.747-5.624-3.33,1.047-16.328C463.663,1144.364,400.29,1097.346,400.057,1097.346z"/>
	<path d="M550.922,1091.481c-3.049-7.579-2.984-7.479-2.984-9.256c-0.121,0-0.234,0-0.355,0c0-14.043,18.789,1.101-42.622-44.92
		c-26.696-20.018-24.279-18.552-26.565-19.606v0.725c-3.746,2.186-9.929,7.073-14.547,10.701
		c-69.642,54.652-55.846,37.013-54.19,53.101h0c-1.32,11.118-7.257,5.767,9.838,19.852c1.779,1.467,32.196,28.028,58.898,44.252
		v0.365C480.175,1145.879,522.517,1116.979,550.922,1091.481z"/>
	<path d="M1208.97,1102.078c1.615,1.332,26.855,23.364,51.479,39.551c10.248-34.209,26.847-65.718,45.614-95.617
		c-3.518-2.632-7.376-5.517-11.631-8.706c-26.696-20.018-24.279-18.552-26.565-19.606v0.725c-3.745,2.186-9.929,7.073-14.547,10.701
		c-69.642,54.652-55.846,37.013-54.19,53.101h0C1197.811,1093.344,1191.875,1087.992,1208.97,1102.078z"/>
	<path d="M866.711,1249.376c-3.049-7.579-2.984-7.479-2.984-9.256c-0.121,0-0.233,0-0.355,0c0-14.043,18.789,1.102-42.623-44.92
		c-26.696-20.017-24.279-18.552-26.565-19.606v0.725c-3.745,2.186-9.929,7.073-14.547,10.701
		c-69.642,54.652-55.846,37.013-54.19,53.101h0c-1.32,11.118-7.257,5.767,9.838,19.852c1.778,1.467,32.196,28.028,58.898,44.252
		v0.365C795.964,1303.774,838.306,1274.874,866.711,1249.376z"/>
	<path d="M708.817,1249.376c-3.049-7.579-2.984-7.479-2.984-9.256c-0.121,0-0.234,0-0.355,0c0-14.043,18.789,1.102-42.622-44.92
		c-26.696-20.017-24.279-18.552-26.565-19.606v0.725c-3.746,2.186-9.929,7.073-14.547,10.701
		c-69.642,54.652-55.846,37.013-54.19,53.101h0c-1.32,11.118-7.257,5.767,9.838,19.852c1.778,1.467,32.196,28.028,58.898,44.252
		v0.365C638.069,1303.774,680.412,1274.874,708.817,1249.376z"/>
	<path d="M261.603,312.604c1.778,1.467,32.196,28.028,58.898,44.252v0.365c1.779-0.815,44.121-29.715,72.527-55.213
		c-3.049-7.578-2.984-7.479-2.984-9.256c-0.121,0-0.234,0-0.355,0c0-14.043,18.789,1.101-42.622-44.92
		c-26.696-20.017-24.279-18.552-26.565-19.606v0.725c-3.746,2.186-9.929,7.073-14.547,10.701c-1.9,1.491-3.727,2.918-5.504,4.304
		c-15.799,21.291-29.657,43.52-41.552,66.422C259.73,311.063,260.624,311.798,261.603,312.604z"/>
	<path d="M550.922,1249.376c-3.049-7.579-2.984-7.479-2.984-9.256c-0.121,0-0.234,0-0.355,0c0-14.043,18.789,1.102-42.622-44.92
		c-26.696-20.017-24.279-18.552-26.565-19.606v0.725c-3.746,2.186-9.929,7.073-14.547,10.701
		c-69.642,54.652-55.846,37.013-54.19,53.101h0c-1.32,11.118-7.257,5.767,9.838,19.852c1.779,1.467,32.196,28.028,58.898,44.252
		v0.365C480.175,1303.774,522.517,1274.874,550.922,1249.376z"/>
	<path d="M1024.606,1249.376c-3.049-7.579-2.984-7.479-2.984-9.256c-0.121,0-0.234,0-0.355,0c0-14.043,18.789,1.102-42.622-44.92
		c-26.696-20.017-24.279-18.552-26.565-19.606v0.725c-3.746,2.186-9.929,7.073-14.547,10.701
		c-69.642,54.652-55.846,37.013-54.19,53.101h0c-1.32,11.118-7.257,5.767,9.838,19.852c1.778,1.467,32.196,28.028,58.898,44.252
		v0.365C953.858,1303.774,996.201,1274.874,1024.606,1249.376z"/>
	<path d="M400.057,1255.24c-0.769,0-32.815,24.61-33.433,25.068c-44.219,32.778-38.804,28.08-36.872,33.958
		c3.797,11.592-5.461,9.409,1.838,16.404c5.532,5.313,63.608,54.698,70.935,50.315c4.219-2.52,68.775-48.156,68.775-54.162
		c0-4.747-5.624-3.33,1.047-16.328C463.663,1302.259,400.29,1255.24,400.057,1255.24z"/>
	<path d="M393.028,1249.376c-3.049-7.579-2.984-7.479-2.984-9.256c-0.121,0-0.234,0-0.355,0c0-14.043,18.789,1.102-42.622-44.92
		c-26.696-20.017-24.279-18.552-26.565-19.606v0.725c-3.746,2.186-9.929,7.073-14.547,10.701
		c-69.642,54.652-55.846,37.013-54.19,53.101h0c-1.32,11.118-7.257,5.767,9.838,19.852c1.778,1.467,32.196,28.028,58.898,44.252
		v0.365C322.28,1303.774,364.623,1274.874,393.028,1249.376z"/>
	<path d="M242.163,1255.24c-0.769,0-32.815,24.61-33.433,25.068c-44.219,32.778-38.804,28.08-36.872,33.958
		c3.797,11.592-5.461,9.409,1.838,16.404c5.532,5.313,63.608,54.698,70.935,50.315c4.219-2.52,68.775-48.156,68.775-54.162
		c0-4.747-5.624-3.33,1.047-16.328C305.768,1302.259,242.396,1255.24,242.163,1255.24z"/>
	<path d="M390.918,1419.732c6.108,0.053,12.217,0.101,18.327,0.148c-5.551-4.118-9.133-6.745-9.188-6.745
		C399.796,1413.135,395.931,1415.971,390.918,1419.732z"/>
	<path d="M708.817,1091.481c-3.049-7.579-2.984-7.479-2.984-9.256c-0.121,0-0.234,0-0.355,0c0-14.043,18.789,1.101-42.622-44.92
		c-26.696-20.018-24.279-18.552-26.565-19.606v0.725c-3.746,2.186-9.929,7.073-14.547,10.701
		c-69.642,54.652-55.846,37.013-54.19,53.101h0c-1.32,11.118-7.257,5.767,9.838,19.852c1.778,1.467,32.196,28.028,58.898,44.252
		v0.365C638.069,1145.879,680.412,1116.979,708.817,1091.481z"/>
	<path d="M876.209,1380.986c4.219-2.52,68.775-48.156,68.775-54.162c0-4.747-5.624-3.33,1.047-16.328
		c-8.684-8.237-72.057-55.256-72.29-55.256c-0.769,0-32.815,24.61-33.433,25.068c-44.219,32.778-38.804,28.08-36.872,33.958
		c3.797,11.592-5.461,9.409,1.838,16.404C810.806,1335.983,868.881,1385.369,876.209,1380.986z"/>
	<path d="M393.028,1407.271c-3.049-7.579-2.984-7.48-2.984-9.256c-0.121,0-0.234,0-0.355,0c0-14.043,18.789,1.101-42.622-44.92
		c-26.696-20.017-24.279-18.552-26.565-19.606v0.725c-3.746,2.186-9.929,7.073-14.547,10.701
		c-69.642,54.652-55.846,37.013-54.19,53.1h0c-1.32,11.119-7.257,5.767,9.838,19.852c0.141,0.116,0.482,0.407,0.967,0.822
		c38.575,0.14,77.263,0.574,115.999,0.933C383.596,1415.504,388.49,1411.344,393.028,1407.271z"/>
	<path d="M718.314,1380.986c4.219-2.52,68.775-48.156,68.775-54.162c0-4.747-5.624-3.33,1.046-16.328
		c-8.684-8.237-72.057-55.256-72.29-55.256c-0.769,0-32.815,24.61-33.433,25.068c-44.219,32.778-38.804,28.08-36.872,33.958
		c3.797,11.592-5.461,9.409,1.838,16.404C652.912,1335.983,710.987,1385.369,718.314,1380.986z"/>
	<path d="M547.938,1398.015c-0.121,0-0.234,0-0.355,0c0-14.043,18.789,1.101-42.622-44.92
		c-26.696-20.017-24.279-18.552-26.565-19.606v0.725c-3.746,2.186-9.929,7.073-14.547,10.701
		c-69.642,54.652-55.846,37.013-54.19,53.1h0c-1.32,11.119-7.257,5.767,9.838,19.852c0.258,0.212,1.132,0.964,2.491,2.121
		c27.25,0.415,52.456,13.103,69.089,33.907c15.107-10.623,40.655-29.399,59.844-46.624
		C547.873,1399.692,547.938,1399.791,547.938,1398.015z"/>
	<path d="M560.42,1380.986c4.219-2.52,68.775-48.156,68.775-54.162c0-4.747-5.623-3.33,1.047-16.328
		c-8.685-8.237-72.057-55.256-72.29-55.256c-0.769,0-32.814,24.61-33.433,25.068c-44.218,32.778-38.804,28.08-36.872,33.958
		c3.797,11.592-5.461,9.409,1.838,16.404C495.017,1335.983,553.092,1385.369,560.42,1380.986z"/>
	<path d="M1034.103,1380.986c4.219-2.52,68.775-48.156,68.775-54.162c0-4.747-5.624-3.33,1.047-16.328
		c-8.685-8.237-72.057-55.256-72.29-55.256c-0.769,0-32.815,24.61-33.433,25.068c-44.218,32.778-38.804,28.08-36.872,33.958
		c3.797,11.592-5.461,9.409,1.838,16.404C968.701,1335.983,1026.776,1385.369,1034.103,1380.986z"/>
	<path d="M952.079,71.056c-3.746,2.186-9.929,7.073-14.547,10.701c-69.642,54.652-55.846,37.013-54.19,53.101h0
		c-1.32,11.118-7.257,5.767,9.838,19.852c1.778,1.467,32.196,28.028,58.898,44.252v0.365c1.779-0.815,44.122-29.715,72.527-55.213
		c-3.049-7.578-2.984-7.479-2.984-9.256c-0.121,0-0.234,0-0.355,0c0-14.043,18.789,1.101-42.622-44.92
		c-26.696-20.017-24.279-18.552-26.565-19.606V71.056z"/>
	<path d="M1041.237,134.857L1041.237,134.857c-1.32,11.118-7.256,5.767,9.839,19.852c1.778,1.467,32.196,28.028,58.898,44.252v0.365
		c1.779-0.815,44.121-29.715,72.526-55.213c-3.049-7.578-2.984-7.479-2.984-9.256c-0.121,0-0.234,0-0.355,0
		c0-14.043,18.789,1.101-42.622-44.92c-3.104-2.328-5.8-4.353-8.17-6.138c-7.67-3.248-15.459-6.38-23.367-9.396
		c-3.147,2.293-6.67,5.071-9.574,7.353C1025.785,136.408,1039.581,118.77,1041.237,134.857z"/>
	<path d="M1191.998,1380.986c4.219-2.52,68.775-48.156,68.775-54.162c0-4.747-5.624-3.33,1.047-16.328
		c-8.684-8.237-72.057-55.256-72.29-55.256c-0.769,0-32.815,24.61-33.433,25.068c-44.219,32.778-38.804,28.08-36.872,33.958
		c3.797,11.592-5.461,9.409,1.838,16.404C1126.595,1335.983,1184.67,1385.369,1191.998,1380.986z"/>
	<path d="M1191.998,117.828c0.368-0.22,1.206-0.775,2.411-1.598c-12.589-7.114-25.588-13.867-38.979-20.255
		C1171.694,108.568,1188.302,120.039,1191.998,117.828z"/>
	<path d="M1109.974,228.951c-3.746,2.186-9.929,7.073-14.547,10.701c-69.642,54.652-55.846,37.013-54.19,53.1h0
		c-1.32,11.118-7.257,5.767,9.838,19.852c1.778,1.467,32.196,28.028,58.898,44.252v0.365c1.779-0.815,44.121-29.715,72.526-55.213
		c-3.049-7.578-2.984-7.479-2.984-9.256c-0.121,0-0.234,0-0.355,0c0-14.043,18.789,1.101-42.622-44.92
		c-26.696-20.017-24.279-18.552-26.565-19.606V228.951z"/>
	<path d="M1191.998,1223.091c3.404-2.033,46.081-32.131,62.443-46.838c0.604-10.584,1.764-19.362,3.561-25.971
		c0.07-0.266,0.147-0.529,0.218-0.794c-16-13.221-68.478-52.143-68.69-52.143c-0.769,0-32.815,24.61-33.433,25.068
		c-44.219,32.778-38.804,28.08-36.872,33.959c3.797,11.592-5.461,9.409,1.838,16.404
		C1126.595,1178.089,1184.67,1227.474,1191.998,1223.091z"/>
	<path d="M1156.097,175.045c-44.219,32.778-38.804,28.08-36.872,33.959c3.797,11.591-5.461,9.408,1.838,16.404
		c5.532,5.313,63.608,54.699,70.935,50.315c4.219-2.52,68.775-48.156,68.775-54.162c0-4.747-5.624-3.33,1.047-16.328
		c-8.684-8.237-72.057-55.256-72.29-55.256C1188.76,149.977,1156.715,174.587,1156.097,175.045z"/>
	<path d="M1034.103,1223.091c4.219-2.52,68.775-48.156,68.775-54.162c0-4.747-5.624-3.33,1.047-16.328
		c-8.685-8.237-72.057-55.256-72.29-55.256c-0.769,0-32.815,24.61-33.433,25.068c-44.218,32.778-38.804,28.08-36.872,33.959
		c3.797,11.592-5.461,9.409,1.838,16.404C968.701,1178.089,1026.776,1227.474,1034.103,1223.091z"/>
	<path d="M840.308,175.045c-44.219,32.778-38.804,28.08-36.872,33.959c3.797,11.591-5.461,9.408,1.838,16.404
		c5.532,5.313,63.608,54.699,70.935,50.315c4.219-2.52,68.775-48.156,68.775-54.162c0-4.747-5.624-3.33,1.047-16.328
		c-8.684-8.237-72.057-55.256-72.29-55.256C872.971,149.977,840.926,174.587,840.308,175.045z"/>
	<path d="M524.519,332.939c-44.218,32.778-38.804,28.08-36.872,33.959c3.797,11.591-5.461,9.408,1.838,16.404
		c5.532,5.313,63.608,54.699,70.935,50.315c4.219-2.52,68.775-48.156,68.775-54.162c0-4.747-5.623-3.33,1.047-16.328
		c-8.685-8.237-72.057-55.256-72.29-55.256C557.182,307.872,525.137,332.481,524.519,332.939z"/>
	<path d="M876.209,1223.091c4.219-2.52,68.775-48.156,68.775-54.162c0-4.747-5.624-3.33,1.047-16.328
		c-8.684-8.237-72.057-55.256-72.29-55.256c-0.769,0-32.815,24.61-33.433,25.068c-44.219,32.778-38.804,28.08-36.872,33.959
		c3.797,11.592-5.461,9.409,1.838,16.404C810.806,1178.089,868.881,1227.474,876.209,1223.091z"/>
	<path d="M840.308,332.939c-44.219,32.778-38.804,28.08-36.872,33.959c3.797,11.591-5.461,9.408,1.838,16.404
		c5.532,5.313,63.608,54.699,70.935,50.315c4.219-2.52,68.775-48.156,68.775-54.162c0-4.747-5.624-3.33,1.047-16.328
		c-8.684-8.237-72.057-55.256-72.29-55.256C872.971,307.872,840.926,332.481,840.308,332.939z"/>
	<path d="M1031.635,149.977c-0.769,0-32.815,24.61-33.433,25.068c-44.218,32.778-38.804,28.08-36.872,33.959
		c3.797,11.591-5.461,9.408,1.838,16.404c5.532,5.313,63.608,54.699,70.935,50.315c4.219-2.52,68.775-48.156,68.775-54.162
		c0-4.747-5.624-3.33,1.047-16.328C1095.24,196.996,1031.868,149.977,1031.635,149.977z"/>
	<path d="M682.413,332.939c-44.219,32.778-38.804,28.08-36.872,33.959c3.797,11.591-5.461,9.408,1.838,16.404
		c5.532,5.313,63.608,54.699,70.935,50.315c4.219-2.52,68.775-48.156,68.775-54.162c0-4.747-5.624-3.33,1.046-16.328
		c-8.684-8.237-72.057-55.256-72.29-55.256C715.077,307.872,683.031,332.481,682.413,332.939z"/>
	<path d="M952.079,228.951c-3.746,2.186-9.929,7.073-14.547,10.701c-69.642,54.652-55.846,37.013-54.19,53.1h0
		c-1.32,11.118-7.257,5.767,9.838,19.852c1.778,1.467,32.196,28.028,58.898,44.252v0.365c1.779-0.815,44.122-29.715,72.527-55.213
		c-3.049-7.578-2.984-7.479-2.984-9.256c-0.121,0-0.234,0-0.355,0c0-14.043,18.789,1.101-42.622-44.92
		c-26.696-20.017-24.279-18.552-26.565-19.606V228.951z"/>
	<path d="M636.29,41.067v0.365c0.482-0.221,3.951-2.51,9.312-6.233c-4.705,0.937-9.376,1.912-14.007,2.934
		C633.168,39.14,634.736,40.122,636.29,41.067z"/>
	<path d="M560.42,117.828c4.219-2.52,68.775-48.156,68.775-54.162c0-4.747-5.623-3.33,1.047-16.328
		c-1.45-1.375-4.431-3.836-8.382-6.975c-42.268,9.986-81.387,23.544-117.327,40.087C523.895,96.528,555.172,120.967,560.42,117.828z
		"/>
	<path d="M532.267,1590.176c0.304,10.14,0.075,20.345-0.701,30.615h92.148c-18.642-14.97-65.562-49.761-65.763-49.761
		C557.42,1571.03,541.979,1582.762,532.267,1590.176z"/>
	<path d="M718.314,1223.091c4.219-2.52,68.775-48.156,68.775-54.162c0-4.747-5.624-3.33,1.046-16.328
		c-8.684-8.237-72.057-55.256-72.29-55.256c-0.769,0-32.815,24.61-33.433,25.068c-44.219,32.778-38.804,28.08-36.872,33.959
		c3.797,11.592-5.461,9.409,1.838,16.404C652.912,1178.089,710.987,1227.474,718.314,1223.091z"/>
	<path d="M645.541,51.109c3.797,11.591-5.461,9.408,1.838,16.404c5.532,5.313,63.608,54.699,70.935,50.315
		c4.219-2.52,68.775-48.156,68.775-54.162c0-4.747-5.624-3.33,1.046-16.328c-3.758-3.564-17.755-14.39-32.445-25.525
		c-32.565,1.609-63.717,5.096-93.453,10.278C640.128,48.522,643.976,46.346,645.541,51.109z"/>
	<path d="M765.686,21.385c8.997,6.805,18.98,13.899,28.498,19.682v0.365c0.943-0.432,13.27-8.747,28.878-20.262
		C803.485,20.61,784.356,20.688,765.686,21.385z"/>
	<path d="M682.413,1596.097c-18.081,13.403-27.86,20.538-32.975,24.694h132.171c-18.642-14.97-65.562-49.761-65.763-49.761
		C715.077,1571.03,683.031,1595.639,682.413,1596.097z"/>
	<path d="M840.308,1596.097c-18.081,13.403-27.86,20.538-32.976,24.694h132.171c-18.642-14.97-65.562-49.761-65.763-49.761
		C872.971,1571.03,840.926,1595.639,840.308,1596.097z"/>
	<path d="M1308.871,1599.89c-14.843,10.987-23.246,17.156-27.855,20.901h32.216
		C1311.789,1614.009,1310.333,1607.032,1308.871,1599.89z"/>
	<path d="M1156.097,1596.097c-18.081,13.403-27.86,20.538-32.975,24.694h132.171c-18.642-14.97-65.562-49.761-65.762-49.761
		C1188.76,1571.03,1156.715,1595.639,1156.097,1596.097z"/>
	<path d="M998.202,1596.097c-18.081,13.403-27.86,20.538-32.975,24.694h132.171c-18.642-14.97-65.562-49.761-65.763-49.761
		C1030.866,1571.03,998.82,1595.639,998.202,1596.097z"/>
	<path d="M1191.998,1538.88c4.219-2.52,68.775-48.155,68.775-54.161c0-4.747-5.624-3.33,1.047-16.328
		c-8.684-8.237-72.057-55.256-72.29-55.256c-0.769,0-32.815,24.61-33.433,25.068c-44.219,32.778-38.804,28.08-36.872,33.959
		c3.797,11.591-5.461,9.408,1.838,16.404C1126.595,1493.878,1184.671,1543.265,1191.998,1538.88z"/>
	<path d="M718.314,1538.88c4.219-2.52,68.775-48.155,68.775-54.161c0-4.747-5.624-3.33,1.046-16.328
		c-8.684-8.237-72.057-55.256-72.29-55.256c-0.769,0-32.815,24.61-33.433,25.068c-44.219,32.778-38.804,28.08-36.872,33.959
		c3.797,11.591-5.461,9.408,1.838,16.404C652.912,1493.878,710.987,1543.265,718.314,1538.88z"/>
	<path d="M560.42,1538.88c4.219-2.52,68.775-48.155,68.775-54.161c0-4.747-5.623-3.33,1.047-16.328
		c-8.685-8.237-72.057-55.256-72.29-55.256c-0.769,0-32.814,24.61-33.433,25.068c-14.27,10.578-23.366,17.249-29.083,21.636
		c2.165,3.213,4.148,6.579,5.911,10.101c7.158,14.296,13.05,28.744,17.716,43.341C536.715,1527.226,556.359,1541.31,560.42,1538.88z
		"/>
	<path d="M547.938,1555.91c-0.121,0-0.234,0-0.355,0c0-12.519,14.931-1.843-25.343-31.988c5.23,18.864,8.426,37.974,9.621,57.326
		c6.63-5.319,13.148-10.774,19.062-16.083C547.873,1557.587,547.938,1557.686,547.938,1555.91z"/>
	<path d="M524.519,175.045c-44.218,32.778-38.804,28.08-36.872,33.959c3.797,11.591-5.461,9.408,1.838,16.404
		c5.532,5.313,63.608,54.699,70.935,50.315c4.219-2.52,68.775-48.156,68.775-54.162c0-4.747-5.623-3.33,1.047-16.328
		c-8.685-8.237-72.057-55.256-72.29-55.256C557.182,149.977,525.137,174.587,524.519,175.045z"/>
	<path d="M1034.103,1538.88c4.219-2.52,68.775-48.155,68.775-54.161c0-4.747-5.624-3.33,1.047-16.328
		c-8.685-8.237-72.057-55.256-72.29-55.256c-0.769,0-32.815,24.61-33.433,25.068c-44.218,32.778-38.804,28.08-36.872,33.959
		c3.797,11.591-5.461,9.408,1.838,16.404C968.701,1493.878,1026.776,1543.265,1034.103,1538.88z"/>
	<path d="M682.413,175.045c-44.219,32.778-38.804,28.08-36.872,33.959c3.797,11.591-5.461,9.408,1.838,16.404
		c5.532,5.313,63.608,54.699,70.935,50.315c4.219-2.52,68.775-48.156,68.775-54.162c0-4.747-5.624-3.33,1.046-16.328
		c-8.684-8.237-72.057-55.256-72.29-55.256C715.077,149.977,683.031,174.587,682.413,175.045z"/>
	<path d="M952.079,41.067v0.365c0.481-0.221,3.937-2.5,9.278-6.21c-7.973-1.412-16.038-2.718-24.18-3.932
		C942.136,34.751,947.17,38.084,952.079,41.067z"/>
	<path d="M876.209,1538.88c4.219-2.52,68.775-48.155,68.775-54.161c0-4.747-5.624-3.33,1.047-16.328
		c-8.684-8.237-72.057-55.256-72.29-55.256c-0.769,0-32.815,24.61-33.433,25.068c-44.219,32.778-38.804,28.08-36.872,33.959
		c3.797,11.591-5.461,9.408,1.838,16.404C810.806,1493.878,868.882,1543.265,876.209,1538.88z"/>
	<path d="M834.351,21.562c-37.756,27.944-32.756,23.947-30.916,29.547c3.797,11.591-5.461,9.408,1.838,16.404
		c5.532,5.313,63.608,54.699,70.935,50.315c4.219-2.52,68.775-48.156,68.775-54.162c0-4.747-5.624-3.33,1.047-16.328
		c-2.894-2.745-11.864-9.798-22.544-17.982c-9.136-1.224-18.364-2.34-27.706-3.316C874.837,23.853,854.366,22.379,834.351,21.562z"
		/>
	<path d="M255.264,317.525c-16.402,32.89-28.808,67.086-37.175,101.804c12.559,9.19,23.611,16.042,26.542,14.289
		c4.219-2.52,68.775-48.156,68.775-54.162c0-4.747-5.624-3.33,1.047-16.328C308.269,357.263,274.365,331.74,255.264,317.525z"/>
	<path d="M1313.991,332.939c-44.219,32.778-38.804,28.08-36.872,33.959c3.797,11.591-5.461,9.408,1.838,16.404
		c5.532,5.313,63.608,54.699,70.935,50.315c4.219-2.52,68.775-48.156,68.775-54.162c0-4.747-5.624-3.33,1.047-16.328
		c-8.685-8.237-72.057-55.256-72.29-55.256C1346.655,307.872,1314.609,332.481,1313.991,332.939z"/>
	<path d="M1267.868,386.845c-3.745,2.186-9.929,7.073-14.547,10.701c-69.642,54.652-55.846,37.013-54.19,53.101h0
		c-1.32,11.118-7.257,5.767,9.838,19.852c1.778,1.467,32.196,28.028,58.898,44.252v0.365c1.779-0.815,44.121-29.715,72.527-55.213
		c-3.049-7.579-2.984-7.479-2.984-9.256c-0.121,0-0.234,0-0.355,0c0-14.043,18.789,1.101-42.622-44.92
		c-26.696-20.017-24.279-18.552-26.565-19.606V386.845z"/>
	<path d="M1366.864,312.604c1.596,1.316,26.244,22.828,50.58,38.955c-13.349-28.241-29.209-55.118-47.505-80.452
		c-21.517,15.903-14.101,10.116-12.914,21.644h0C1355.706,303.87,1349.769,298.519,1366.864,312.604z"/>
	<path d="M1191.998,907.302c4.219-2.52,68.775-48.156,68.775-54.162c0-4.747-5.624-3.33,1.047-16.328
		c-8.684-8.237-72.057-55.256-72.29-55.256c-0.769,0-32.815,24.61-33.433,25.068c-44.219,32.778-38.804,28.08-36.872,33.959
		c3.797,11.592-5.461,9.408,1.838,16.404C1126.595,862.299,1184.671,911.685,1191.998,907.302z"/>
	<path d="M1156.097,490.834c-44.219,32.778-38.804,28.08-36.872,33.959c3.797,11.592-5.461,9.408,1.838,16.404
		c5.532,5.313,63.608,54.699,70.935,50.315c4.219-2.52,68.775-48.156,68.775-54.162c0-4.747-5.624-3.33,1.047-16.328
		c-8.684-8.237-72.057-55.256-72.29-55.256C1188.76,465.767,1156.715,490.376,1156.097,490.834z"/>
	<path d="M952.079,544.74c-3.746,2.186-9.929,7.073-14.547,10.701c-69.642,54.652-55.846,37.013-54.19,53.1h0
		c-1.32,11.118-7.257,5.767,9.838,19.852c1.778,1.467,32.196,28.028,58.898,44.252v0.365c1.779-0.815,44.122-29.715,72.527-55.213
		c-3.049-7.579-2.984-7.479-2.984-9.256c-0.121,0-0.234,0-0.355,0c0-14.043,18.789,1.101-42.622-44.92
		c-26.696-20.017-24.279-18.552-26.565-19.606V544.74z"/>
	<path d="M840.308,648.729c-44.219,32.778-38.804,28.08-36.872,33.959c3.797,11.592-5.461,9.409,1.838,16.404
		c5.532,5.313,63.608,54.699,70.935,50.315c4.219-2.52,68.775-48.156,68.775-54.162c0-4.747-5.624-3.33,1.047-16.328
		c-8.684-8.237-72.057-55.256-72.29-55.256C872.971,623.661,840.926,648.271,840.308,648.729z"/>
	<path d="M1109.974,544.74c-3.746,2.186-9.929,7.073-14.547,10.701c-69.642,54.652-55.846,37.013-54.19,53.1h0
		c-1.32,11.118-7.257,5.767,9.838,19.852c1.778,1.467,32.196,28.028,58.898,44.252v0.365c1.779-0.815,44.121-29.715,72.526-55.213
		c-3.049-7.579-2.984-7.479-2.984-9.256c-0.121,0-0.234,0-0.355,0c0-14.043,18.789,1.101-42.622-44.92
		c-26.696-20.017-24.279-18.552-26.565-19.606V544.74z"/>
	<path d="M1034.103,907.302c4.219-2.52,68.775-48.156,68.775-54.162c0-4.747-5.624-3.33,1.047-16.328
		c-8.685-8.237-72.057-55.256-72.29-55.256c-0.769,0-32.815,24.61-33.433,25.068c-44.218,32.778-38.804,28.08-36.872,33.959
		c3.797,11.592-5.461,9.408,1.838,16.404C968.701,862.299,1026.776,911.685,1034.103,907.302z"/>
	<path d="M1031.635,465.767c-0.769,0-32.815,24.61-33.433,25.068c-44.218,32.778-38.804,28.08-36.872,33.959
		c3.797,11.592-5.461,9.408,1.838,16.404c5.532,5.313,63.608,54.699,70.935,50.315c4.219-2.52,68.775-48.156,68.775-54.162
		c0-4.747-5.624-3.33,1.047-16.328C1095.24,512.785,1031.868,465.767,1031.635,465.767z"/>
	<path d="M1031.635,623.661c-0.769,0-32.815,24.61-33.433,25.068c-44.218,32.778-38.804,28.08-36.872,33.959
		c3.797,11.592-5.461,9.409,1.838,16.404c5.532,5.313,63.608,54.699,70.935,50.315c4.219-2.52,68.775-48.156,68.775-54.162
		c0-4.747-5.624-3.33,1.047-16.328C1095.24,670.68,1031.868,623.661,1031.635,623.661z"/>
	<path d="M1357.026,450.646L1357.026,450.646c-1.32,11.118-7.256,5.767,9.839,19.852c1.779,1.467,32.196,28.028,58.898,44.252v0.365
		c1.064-0.488,16.637-11.021,35.059-24.863c-5.798-33.905-14.547-66.589-26.163-97.835c-7.963-6.028-7.334-5.576-8.896-6.296v0.725
		c-3.746,2.186-9.929,7.073-14.547,10.701C1341.574,452.198,1355.37,434.559,1357.026,450.646z"/>
	<path d="M1313.991,648.729c-44.219,32.778-38.804,28.08-36.872,33.959c3.797,11.592-5.461,9.409,1.838,16.404
		c5.532,5.313,63.608,54.699,70.935,50.315c4.219-2.52,68.775-48.156,68.775-54.162c0-4.747-5.624-3.33,1.047-16.328
		c-8.685-8.237-72.057-55.256-72.29-55.256C1346.655,623.661,1314.609,648.271,1313.991,648.729z"/>
	<path d="M1313.991,490.834c-44.219,32.778-38.804,28.08-36.872,33.959c3.797,11.592-5.461,9.408,1.838,16.404
		c5.532,5.313,63.608,54.699,70.935,50.315c4.219-2.52,68.775-48.156,68.775-54.162c0-4.747-5.624-3.33,1.047-16.328
		c-8.685-8.237-72.057-55.256-72.29-55.256C1346.655,465.767,1314.609,490.376,1313.991,490.834z"/>
	<path d="M1425.762,544.74c-3.746,2.186-9.929,7.073-14.547,10.701c-69.642,54.652-55.846,37.013-54.19,53.1h0
		c-1.32,11.118-7.257,5.767,9.838,19.852c1.779,1.467,32.196,28.028,58.898,44.252v0.365c1.186-0.543,20.391-13.564,41.479-29.736
		c1.772-22.736,2.375-45.125,1.833-67.119c-4.783-3.58-10.321-7.718-16.747-12.534c-26.696-20.017-24.279-18.552-26.565-19.606
		V544.74z"/>
	<path d="M1435.014,524.793c3.797,11.592-5.461,9.408,1.838,16.404c2.604,2.5,16.847,14.764,31.961,26.589
		c-0.903-23.73-3.148-46.987-6.71-69.709C1428.526,522.917,1433.238,519.39,1435.014,524.793z"/>
	<path d="M1267.868,544.74c-3.745,2.186-9.929,7.073-14.547,10.701c-69.642,54.652-55.846,37.013-54.19,53.1h0
		c-1.32,11.118-7.257,5.767,9.838,19.852c1.778,1.467,32.196,28.028,58.898,44.252v0.365c1.779-0.815,44.121-29.715,72.527-55.213
		c-3.049-7.579-2.984-7.479-2.984-9.256c-0.121,0-0.234,0-0.355,0c0-14.043,18.789,1.101-42.622-44.92
		c-26.696-20.017-24.279-18.552-26.565-19.606V544.74z"/>
	<path d="M682.413,648.729c-44.219,32.778-38.804,28.08-36.872,33.959c3.797,11.592-5.461,9.409,1.838,16.404
		c5.532,5.313,63.608,54.699,70.935,50.315c4.219-2.52,68.775-48.156,68.775-54.162c0-4.747-5.624-3.33,1.046-16.328
		c-8.684-8.237-72.057-55.256-72.29-55.256C715.077,623.661,683.031,648.271,682.413,648.729z"/>
	<path d="M952.079,702.635c-3.746,2.186-9.929,7.073-14.547,10.701c-69.642,54.652-55.846,37.013-54.19,53.101h0
		c-1.32,11.118-7.257,5.767,9.838,19.852c1.778,1.467,32.196,28.028,58.898,44.252v0.365c1.779-0.815,44.122-29.715,72.527-55.213
		c-3.049-7.579-2.984-7.479-2.984-9.256c-0.121,0-0.234,0-0.355,0c0-14.043,18.789,1.101-42.622-44.92
		c-26.696-20.017-24.279-18.552-26.565-19.606V702.635z"/>
	<path d="M1109.974,702.635c-3.746,2.186-9.929,7.073-14.547,10.701c-69.642,54.652-55.846,37.013-54.19,53.101h0
		c-1.32,11.118-7.257,5.767,9.838,19.852c1.778,1.467,32.196,28.028,58.898,44.252v0.365c1.779-0.815,44.121-29.715,72.526-55.213
		c-3.049-7.579-2.984-7.479-2.984-9.256c-0.121,0-0.234,0-0.355,0c0-14.043,18.789,1.101-42.622-44.92
		c-26.696-20.017-24.279-18.552-26.565-19.606V702.635z"/>
	<path d="M1156.097,648.729c-44.219,32.778-38.804,28.08-36.872,33.959c3.797,11.592-5.461,9.409,1.838,16.404
		c5.532,5.313,63.608,54.699,70.935,50.315c4.219-2.52,68.775-48.156,68.775-54.162c0-4.747-5.624-3.33,1.047-16.328
		c-8.684-8.237-72.057-55.256-72.29-55.256C1188.76,623.661,1156.715,648.271,1156.097,648.729z"/>
	<path d="M718.314,1065.196c4.219-2.52,68.775-48.156,68.775-54.162c0-4.747-5.624-3.33,1.046-16.328
		c-8.684-8.237-72.057-55.256-72.29-55.256c-0.769,0-32.815,24.61-33.433,25.068c-44.219,32.778-38.804,28.08-36.872,33.959
		c3.797,11.592-5.461,9.409,1.838,16.404C652.912,1020.194,710.987,1069.58,718.314,1065.196z"/>
	<path d="M952.079,386.845c-3.746,2.186-9.929,7.073-14.547,10.701c-69.642,54.652-55.846,37.013-54.19,53.101h0
		c-1.32,11.118-7.257,5.767,9.838,19.852c1.778,1.467,32.196,28.028,58.898,44.252v0.365c1.779-0.815,44.122-29.715,72.527-55.213
		c-3.049-7.579-2.984-7.479-2.984-9.256c-0.121,0-0.234,0-0.355,0c0-14.043,18.789,1.101-42.622-44.92
		c-26.696-20.017-24.279-18.552-26.565-19.606V386.845z"/>
	<path d="M1156.097,332.939c-44.219,32.778-38.804,28.08-36.872,33.959c3.797,11.591-5.461,9.408,1.838,16.404
		c5.532,5.313,63.608,54.699,70.935,50.315c4.219-2.52,68.775-48.156,68.775-54.162c0-4.747-5.624-3.33,1.047-16.328
		c-8.684-8.237-72.057-55.256-72.29-55.256C1188.76,307.872,1156.715,332.481,1156.097,332.939z"/>
	<path d="M1109.974,386.845c-3.746,2.186-9.929,7.073-14.547,10.701c-69.642,54.652-55.846,37.013-54.19,53.101h0
		c-1.32,11.118-7.257,5.767,9.838,19.852c1.778,1.467,32.196,28.028,58.898,44.252v0.365c1.779-0.815,44.121-29.715,72.526-55.213
		c-3.049-7.579-2.984-7.479-2.984-9.256c-0.121,0-0.234,0-0.355,0c0-14.043,18.789,1.101-42.622-44.92
		c-26.696-20.017-24.279-18.552-26.565-19.606V386.845z"/>
	<path d="M682.413,490.834c-44.219,32.778-38.804,28.08-36.872,33.959c3.797,11.592-5.461,9.408,1.838,16.404
		c5.532,5.313,63.608,54.699,70.935,50.315c4.219-2.52,68.775-48.156,68.775-54.162c0-4.747-5.624-3.33,1.046-16.328
		c-8.684-8.237-72.057-55.256-72.29-55.256C715.077,465.767,683.031,490.376,682.413,490.834z"/>
	<path d="M1031.635,307.872c-0.769,0-32.815,24.61-33.433,25.068c-44.218,32.778-38.804,28.08-36.872,33.959
		c3.797,11.591-5.461,9.408,1.838,16.404c5.532,5.313,63.608,54.699,70.935,50.315c4.219-2.52,68.775-48.156,68.775-54.162
		c0-4.747-5.624-3.33,1.047-16.328C1095.24,354.89,1031.868,307.872,1031.635,307.872z"/>
	<path d="M840.308,490.834c-44.219,32.778-38.804,28.08-36.872,33.959c3.797,11.592-5.461,9.408,1.838,16.404
		c5.532,5.313,63.608,54.699,70.935,50.315c4.219-2.52,68.775-48.156,68.775-54.162c0-4.747-5.624-3.33,1.047-16.328
		c-8.684-8.237-72.057-55.256-72.29-55.256C872.971,465.767,840.926,490.376,840.308,490.834z"/>
	<path d="M225.506,1415.615c3.326-2.795,6.558-5.59,9.627-8.344c-3.049-7.579-2.984-7.48-2.984-9.256c-0.121,0-0.234,0-0.355,0
		c0-14.043,18.789,1.101-42.622-44.92c-26.696-20.017-24.279-18.552-26.565-19.606v0.725c-3.746,2.186-9.929,7.073-14.547,10.701
		c-3.772,2.96-7.285,5.696-10.583,8.249C157.99,1384.831,185.493,1405.005,225.506,1415.615z"/>
	<path d="M524.519,490.834c-44.218,32.778-38.804,28.08-36.872,33.959c3.797,11.592-5.461,9.408,1.838,16.404
		c5.532,5.313,63.608,54.699,70.935,50.315c4.219-2.52,68.775-48.156,68.775-54.162c0-4.747-5.623-3.33,1.047-16.328
		c-8.685-8.237-72.057-55.256-72.29-55.256C557.182,465.767,525.137,490.376,524.519,490.834z"/>
	<path d="M235.37,1417.977c1.039,0.225,2.075,0.451,3.13,0.665c3.734,0,7.472,0.013,11.208,0.02
		c-4.602-3.409-7.496-5.527-7.545-5.527C241.944,1413.135,239.199,1415.123,235.37,1417.977z"/>
	<path d="M524.519,648.729c-44.218,32.778-38.804,28.08-36.872,33.959c3.797,11.592-5.461,9.409,1.838,16.404
		c5.532,5.313,63.608,54.699,70.935,50.315c4.219-2.52,68.775-48.156,68.775-54.162c0-4.747-5.623-3.33,1.047-16.328
		c-8.685-8.237-72.057-55.256-72.29-55.256C557.182,623.661,525.137,648.271,524.519,648.729z"/>
	<path d="M400.057,307.872c-0.769,0-32.815,24.61-33.433,25.068c-44.219,32.778-38.804,28.08-36.872,33.959
		c3.797,11.591-5.461,9.408,1.838,16.404c5.532,5.313,63.608,54.699,70.935,50.315c4.219-2.52,68.775-48.156,68.775-54.162
		c0-4.747-5.624-3.33,1.047-16.328C463.663,354.89,400.29,307.872,400.057,307.872z"/>
	<path d="M560.42,1223.091c4.219-2.52,68.775-48.156,68.775-54.162c0-4.747-5.623-3.33,1.047-16.328
		c-8.685-8.237-72.057-55.256-72.29-55.256c-0.769,0-32.814,24.61-33.433,25.068c-44.218,32.778-38.804,28.08-36.872,33.959
		c3.797,11.592-5.461,9.409,1.838,16.404C495.017,1178.089,553.092,1227.474,560.42,1223.091z"/>
	<path d="M560.42,1065.196c4.219-2.52,68.775-48.156,68.775-54.162c0-4.747-5.623-3.33,1.047-16.328
		c-8.685-8.237-72.057-55.256-72.29-55.256c-0.769,0-32.814,24.61-33.433,25.068c-44.218,32.778-38.804,28.08-36.872,33.959
		c3.797,11.592-5.461,9.409,1.838,16.404C495.017,1020.194,553.093,1069.58,560.42,1065.196z"/>
	<path d="M1435.014,682.688c3.797,11.592-5.461,9.409,1.838,16.404c1.942,1.864,10.358,9.159,20.777,17.651
		c3.941-21.588,6.873-42.926,8.807-63.976C1428.135,681.116,1433.165,677.063,1435.014,682.688z"/>
	<path d="M400.057,465.767c-0.769,0-32.815,24.61-33.433,25.068c-44.219,32.778-38.804,28.08-36.872,33.959
		c3.797,11.592-5.461,9.408,1.838,16.404c5.532,5.313,63.608,54.699,70.935,50.315c4.219-2.52,68.775-48.156,68.775-54.162
		c0-4.747-5.624-3.33,1.047-16.328C463.663,512.785,400.29,465.767,400.057,465.767z"/>
	<path d="M1034.103,1065.196c4.219-2.52,68.775-48.156,68.775-54.162c0-4.747-5.624-3.33,1.047-16.328
		c-8.685-8.237-72.057-55.256-72.29-55.256c-0.769,0-32.815,24.61-33.433,25.068c-44.218,32.778-38.804,28.08-36.872,33.959
		c3.797,11.592-5.461,9.409,1.838,16.404C968.701,1020.194,1026.776,1069.58,1034.103,1065.196z"/>
	<path d="M876.209,1065.196c4.219-2.52,68.775-48.156,68.775-54.162c0-4.747-5.624-3.33,1.047-16.328
		c-8.684-8.237-72.057-55.256-72.29-55.256c-0.769,0-32.815,24.61-33.433,25.068c-44.219,32.778-38.804,28.08-36.872,33.959
		c3.797,11.592-5.461,9.409,1.838,16.404C810.806,1020.194,868.882,1069.58,876.209,1065.196z"/>
	<path d="M1191.998,1065.196c4.219-2.52,68.775-48.156,68.775-54.162c0-4.747-5.624-3.33,1.047-16.328
		c-8.684-8.237-72.057-55.256-72.29-55.256c-0.769,0-32.815,24.61-33.433,25.068c-44.219,32.778-38.804,28.08-36.872,33.959
		c3.797,11.592-5.461,9.409,1.838,16.404C1126.595,1020.194,1184.671,1069.58,1191.998,1065.196z"/>
	<path d="M1295.651,188.623c-24.151,17.915-20.14,15.49-18.532,20.381c3.797,11.591-5.461,9.408,1.838,16.404
		c5.532,5.313,63.608,54.699,70.935,50.315c1.207-0.721,7.35-4.97,15.504-10.807
		C1345.002,237.554,1321.723,212.044,1295.651,188.623z"/>
	<path d="M1267.868,228.951c-3.745,2.186-9.929,7.073-14.547,10.701c-69.642,54.652-55.846,37.013-54.19,53.1h0
		c-1.32,11.118-7.257,5.767,9.838,19.852c1.778,1.467,32.196,28.028,58.898,44.252v0.365c1.779-0.815,44.121-29.715,72.527-55.213
		c-3.049-7.578-2.984-7.479-2.984-9.256c-0.121,0-0.234,0-0.355,0c0-14.043,18.789,1.101-42.622-44.92
		c-26.696-20.017-24.279-18.552-26.565-19.606V228.951z"/>
</g>
</svg>
