<?xml version="1.0"?>
<svg xmlns="http://www.w3.org/2000/svg" viewBox="0 0 64 64" width="512" height="512"><g id="svg-file"><path d="M61,6H49.41l-3.7-3.71A1.033,1.033,0,0,0,45,2H17a1,1,0,0,0-1,1V21H3a1,1,0,0,0-1,1V42a1,1,0,0,0,1,1H16V57a1,1,0,0,0,1,1h3v3a1,1,0,0,0,1,1H61a1,1,0,0,0,1-1V7A1,1,0,0,0,61,6ZM46,5.41,54.59,14H47a1,1,0,0,1-1-1ZM4,41V23H52V41ZM18,56V43H53a1,1,0,0,0,1-1V22a1,1,0,0,0-1-1H18V4H44v9a3.009,3.009,0,0,0,3,3h9V56Zm42,4H22V58H57a1,1,0,0,0,1-1V15a1.033,1.033,0,0,0-.29-.71L51.41,8H60Z"/><path d="M32,25H29v2h1.613L28,34.838,25.387,27H27V25H24a1,1,0,0,0-.949,1.316l4,12a1,1,0,0,0,1.9,0l4-12A1,1,0,0,0,32,25Z"/><path d="M44,25H36a1,1,0,0,0-1,1V38a1,1,0,0,0,1,1h8a1,1,0,0,0,1-1V32a1,1,0,0,0-1-1H40v2h3v4H37V27h6v2h2V26A1,1,0,0,0,44,25Z"/><path d="M20,25H12a1,1,0,0,0-1,1v6a1,1,0,0,0,1,1h7v4H13V35H11v3a1,1,0,0,0,1,1h8a1,1,0,0,0,1-1V32a1,1,0,0,0-1-1H13V27h6v2h2V26A1,1,0,0,0,20,25Z"/></g></svg>
